<svg width="90" height="90" viewBox="0 0 90 90" fill="none" xmlns="http://www.w3.org/2000/svg">
<path d="M-1.96701e-06 45C-8.80427e-07 69.8582 20.1418 90 45 90C69.8582 90 90 69.8582 90 45C90 20.1418 69.8582 4.5758e-06 45 5.66238e-06C20.1418 6.74897e-06 -3.0536e-06 20.1418 -1.96701e-06 45ZM62.5457 35.6106C64.1683 33.988 66.8293 33.988 68.4519 35.6106C69.274 36.4327 69.6635 37.4928 69.6635 38.5529C69.6635 39.613 69.2524 40.6947 68.4303 41.5168L48.0288 61.8534C46.3846 63.3462 43.8534 63.3029 42.274 61.7236L21.5697 41.0841C19.9471 39.4615 19.9255 36.8221 21.5697 35.1779C23.1923 33.5553 25.8317 33.5337 27.476 35.1779L45 52.8966L62.5457 35.6106Z" fill="#1F1E70"/>
</svg>
