<svg width="40" height="40" viewBox="0 0 40 40" fill="none" xmlns="http://www.w3.org/2000/svg">
<path d="M20 0C8.95536 0 0 9.1875 0 20.5089C0 29.5715 5.73214 37.2501 13.6786 39.9643C13.8036 39.9911 13.9107 40 14.0179 40C14.7589 40 15.0446 39.4553 15.0446 38.9821C15.0446 38.4911 15.0268 37.2054 15.0179 35.4911C14.2679 35.6607 13.5982 35.7322 13 35.7322C9.15179 35.7322 8.27678 32.741 8.27678 32.741C7.36607 30.375 6.05357 29.741 6.05357 29.741C4.3125 28.5179 6.04464 28.4821 6.17857 28.4821H6.1875C8.19643 28.6607 9.25 30.6071 9.25 30.6071C10.25 32.3572 11.5893 32.8482 12.7857 32.8482C13.7232 32.8482 14.5714 32.5447 15.0714 32.3125C15.25 30.9911 15.7679 30.0892 16.3393 29.5715C11.9018 29.0536 7.23214 27.2946 7.23214 19.4376C7.23214 17.1964 8.00892 15.3661 9.28572 13.9375C9.08037 13.4197 8.39285 11.3304 9.48214 8.50892C9.48214 8.50892 9.62501 8.46428 9.92857 8.46428C10.6518 8.46428 12.2857 8.74108 14.9821 10.6161C16.5804 10.1607 18.2857 9.9375 19.9911 9.92857C21.6875 9.9375 23.4017 10.1607 25 10.6161C27.6963 8.74108 29.3304 8.46428 30.0536 8.46428C30.3572 8.46428 30.5 8.50892 30.5 8.50892C31.5892 11.3304 30.9017 13.4197 30.6963 13.9375C31.9732 15.375 32.7499 17.2054 32.7499 19.4376C32.7499 27.3125 28.0715 29.0447 23.616 29.5536C24.3304 30.1875 24.9732 31.4376 24.9732 33.3482C24.9732 36.0892 24.9464 38.3036 24.9464 38.9732C24.9464 39.4553 25.2231 40 25.9643 40C26.0715 40 26.1963 39.9911 26.3214 39.9643C34.2769 37.2501 40 29.5624 40 20.5089C40 9.1875 31.0447 0 20 0Z" fill="black"/>
</svg>
