<svg width="40" height="40" viewBox="0 0 40 40" fill="none" xmlns="http://www.w3.org/2000/svg">
<g clip-path="url(#clip0)">
<path d="M36.8012 0H3.41755C1.59416 0 0 1.31284 0 3.11539V36.572C0 38.3849 1.59416 40 3.41755 40H36.7908C38.6245 40 40 38.3746 40 36.572V3.11539C40.0104 1.31284 38.6245 0 36.8012 0ZM12.399 33.3419H6.6684V15.5249H12.399V33.3419ZM9.73169 12.8158H9.69002C7.85621 12.8158 6.6684 11.4509 6.6684 9.7421C6.6684 8.00207 7.88746 6.6684 9.76294 6.6684C11.6384 6.6684 12.7846 7.99165 12.8262 9.7421C12.8262 11.4509 11.6384 12.8158 9.73169 12.8158ZM33.3419 33.3419H27.6113V23.5998C27.6113 21.2659 26.7777 19.6718 24.7043 19.6718C23.1205 19.6718 22.1828 20.745 21.7661 21.787C21.6097 22.1619 21.568 22.6725 21.568 23.1936V33.3419H15.8374V15.5249H21.568V18.0047C22.4016 16.8169 23.704 15.1081 26.7362 15.1081C30.4976 15.1081 33.3419 17.5878 33.3419 22.933V33.3419Z" fill="#0082BF"/>
</g>
<defs>
<clipPath id="clip0">
<rect width="40" height="40" fill="white"/>
</clipPath>
</defs>
</svg>
