<svg width="40" height="40" viewBox="0 0 40 40" fill="none" xmlns="http://www.w3.org/2000/svg">
<path opacity="0.7" d="M39.673 9.39508L29.327 19.9335C29.2499 20.0105 29.2499 20.1259 29.327 20.2028L36.5673 27.9143C37.0577 28.4048 37.0577 29.1931 36.5673 29.6836C36.327 29.9239 36 30.049 35.6826 30.049C35.3654 30.049 35.0384 29.9239 34.7981 29.6836L27.5866 22.0009C27.5096 21.9239 27.3847 21.9239 27.3077 22.0009L25.548 23.7893C24.0769 25.2797 22.125 26.1067 20.0289 26.1163C17.9038 26.1258 15.8846 25.2316 14.3942 23.722L12.7019 22.0009C12.625 21.9239 12.5 21.9239 12.4231 22.0009L5.21153 29.6836C4.97115 29.9239 4.64423 30.049 4.32692 30.049C4.00962 30.049 3.6827 29.9239 3.44231 29.6836C2.95193 29.1931 2.95193 28.4048 3.44231 27.9143L10.6827 20.2028C10.75 20.1259 10.75 20.0105 10.6827 19.9335L0.326923 9.39508C0.201923 9.27007 0 9.35661 0 9.52969V30.6163C0 32.3086 1.38462 33.6931 3.07692 33.6931H36.9231C38.6153 33.6931 40 32.3086 40 30.6163V9.52969C40 9.35661 39.7885 9.27969 39.673 9.39508Z" fill="#FC4445"/>
<path opacity="0.7" d="M20.0005 23.6057C21.4237 23.6057 22.7602 23.0481 23.7602 22.0289L38.8468 6.67308C38.3179 6.25 37.664 6 36.943 6H3.06792C2.34675 6 1.68329 6.25 1.16406 6.67308L16.2506 22.0289C17.241 23.0385 18.5776 23.6057 20.0005 23.6057Z" fill="#FC4445"/>
</svg>
